<?xml version="1.0" encoding="utf-8"?>

<!DOCTYPE svg PUBLIC "-//W3C//DTD SVG 1.1//EN" "http://www.w3.org/Graphics/SVG/1.1/DTD/svg11.dtd">
<svg version="1.1" id="Layer_1" xmlns="http://www.w3.org/2000/svg" xmlns:xlink="http://www.w3.org/1999/xlink" x="0px" y="0px"
	 viewBox="0 0 1330 1488" enable-background="new 0 0 1330 1488" xml:space="preserve">
<path d="M826.63,27.6c12.41-1.27,24.88-2.08,37.37-1.49c9.66,1.07,19.37,1.68,29.03,2.84c41.85,5.38,82.3,19.25,119.95,38.11
	c25.86,13.09,50.9,28.14,72.9501,47.08c16.75,13.49,31.1899,29.54,44.7799,46.14c13.52,17.02,25.11,35.49,35.37,54.62
	c4.2101,7.07,7.4401,14.64,10.9601,22.06c19.21,41.58,30.61,86.17,40.2799,130.77c12.7201,44.77,21.62,90.54,28.4301,136.55
	c1.25,5.76,1.08,11.71,2.4301,17.46c2.33,15.05,3.4399,30.26,5.59,45.35c0.1899,5.25,0.6699,10.48,1.5499,15.66
	c0.92,5.13,0.4501,10.37,1.2401,15.51c0.6799,6.54,1.2699,13.09,1.71,19.65c1.02,6.95,0.47,14.04,1.85,20.96
	c1.5601,7.42,0.29,15.05,1.42,22.51c0.72,7.54,1.73,15.06,1.49,22.66c1.01,10.92,1.87,21.87,2.22,32.84
	c1.24,6.78,0.3,13.71,1.28,20.52c0.6,4.66,0.28,9.38,0.97,14.04c0.92,6.22,0.05,12.56,1.16,18.77
	c0.59,8.61,1.5499,17.2,1.4199,25.84c1.6001,13.59,1.5801,27.28,2.87,40.89c-0.13,10.74,2.0701,21.34,2.05,32.08
	c-0.01,6.06,1,12.06,1.55,18.1c0.7699,6.12,0.0599,12.32,1,18.44c0.99,7.46,1.5499,14.96,1.47,22.49
	c1.04,10.49,1.21,21.04,2.52,31.52c0.83,5.9,0.0399,11.91,1.0399,17.8c0.5701,5.52,1.3201,11.04,1.38,16.61
	c-0.11,8.01,1.4301,15.93,1.8101,23.93c0.1799,5.73,1.1699,11.4001,1.26,17.1401c0.1699,6.0299,1.85,11.9099,1.97,17.95
	c0.09,5.73,1.98,11.25,1.98,16.99c0.0601,5.74,1.84,11.28,2.03,17.03c1.15,11.29,3.52,22.4199,5.55,33.58
	c4.48,22.3201,9.6499,44.5,15.6399,66.4601c2.1001,7.6499,3.8,15.4199,6.63,22.85c2.3201,6.1799,3.1001,12.7999,5.3401,19.02
	c1.47,4.13,3.0499,8.2599,3.83,12.62v30.2899c-1.45-1.2799-3.0601-2.5499-3.15-4.61c-1.5399-9.6899-5.99-18.5699-7.74-28.2
	c-4.49-17.3-9.39-34.51-13.39-51.9401c-3.0699-10.39-5.53-20.97-7.27-31.6599c-3.1599-9.9401-4.08-20.38-6.26-30.54
	c-2.0699-10.23-3.35-20.58-4.86-30.9c-0.48-6.66-2.3999-13.11-2.63-19.79c-2.2799-12.3899-2.2699-25.0399-4.2-37.47
	c-0.66-5.89-0.4-11.85-1.46-17.71c-1.3-14.12-2.28-28.26-3.6801-42.38c-0.6899-6.16-0.03-12.38-0.78-18.54
	c-0.6599-7.36-1.76-14.7-1.58-22.1c0.14-7.37-1.11-14.67-1.54-22.01c-0.6599-6.08-0.12-12.22-1-18.28
	c-0.75-5.2401-0.2899-10.55-0.7-15.81c-0.63-6.94-0.98-13.89-1.66-20.82c0.03-14.09-2.08-28.08-2.26-42.17
	c-1.0599-8.33-0.7899-16.74-1.62-25.08c-0.27-5.29-1.37-10.51-1.23-15.82c0.4301-12.4-2.49-24.63-1.98-37.03
	c-0.45-10.36-2.3201-20.64-2.03-31.04c-1.09-12.95-1.61-25.94-2.9-38.88c0.04-10.74-2.0299-21.36-2.11-32.1
	c-0.71-13.61-2.61-27.13-3.25-40.7401c-0.61-5.0699-1.7899-10.09-1.72-15.22c0-5.46-1.08-10.83-1.66-16.24
	c-0.87-11.54-2.76-22.98-3.7-34.51c-1.51-7.49-1.55-15.16-3.1901-22.62c-2.3899-19.07-5.73-37.97-9.1899-56.87
	c-2.83-11.74-3.83-23.96-7.96-35.34c-1.2001,8.82,0.7999,17.59,0.97,26.4c0.7999,5.62,0.52,11.3,1.0699,16.94
	c1.39,8.35-0.0399,16.87,1.35,25.22c0.2201,8.03,1.6201,15.98,1.3301,24.03c-0.01,5.8-0.3101,11.64,0.5,17.41
	c0.8199,5.79,0.1699,11.67,0.91,17.47c1.0399,8.34,0.3899,16.76,0.5599,25.14c0.01,5.0099,1.16,9.9399,1.04,14.97
	c0.1699,9.97-0.64,20,0.71,29.93c0.7,8.08-0.33,16.24,0.88,24.3c1.02,12.45-0.2,24.98,0.66,37.44c0.7,5.75,0.7999,11.55,0.71,17.34
	c-0.14,5,0.74,9.95,0.9401,14.95c0.3099,11.99-0.2401,23.99,0.24,35.98c1.12,7.64,0.62,15.38,0.99,23.07
	c1.9199,14.26-0.16,28.71,1.46,42.99c0.8101,7.57-0.0599,15.21,0.72,22.79c1.2201,11.18,0.04,22.47,1.11,33.67
	c0.99,9.17,0.24,18.42,0.92,27.62c0.55,7.63,0.52,15.29,1.29,22.91c0.85,8.73-0.25,17.54,0.83,26.27
	c1.11,10.22,1.66,20.51,1.54,30.8c0.72,8.62,1.64,17.24,1.9199,25.9c-0.0599,6.39-0.21,12.8,0.8101,19.13
	c0.37,6.93,0.15,13.9,1.41,20.7599c1.3999,6.6901,0.1899,13.61,1.74,20.29c1.51,7.16,0.73,14.5599,2.2799,21.73
	c4.5701,43.64,14.8101,86.83,31.53,127.46c3.6901,8.1001,7.79,16.01,11.78,23.9801c1.76,4.35,4.0601,8.45,6.7,12.33
	c4.24,7.9,9.7301,15.02,14.41,22.66c4.21,5.33,7.29,11.9199,13.39,15.3999V1488H189.5c2.17-3,3.95-6.3101,4.8-9.9301
	c5.08-18.87,10.9-37.5099,16.64-56.1899c3.25-12.79,7.84-25.1901,11.1-37.97c25.5-86.5601,50.67-173.27,72-260.9601
	c1.21-5.0199,1.31-10.23,2.61-15.23c5.43-23.11,10.33-46.35,14.4-69.74c2.51-15.89,5.74-31.79,5.76-47.93
	c0.78-11.52,1.31-23.27-1.18-34.62c-1.74-8.64-8.24-15.02-13.19-21.93c-19.18-26.11-38.47-52.13-57.97-78
	c-3.91-5.06-7.49-10.4-11.89-15.05c-8.82-9.51-17.61-19.05-26.35-28.63c-5.58-6.12-10.73-12.63-16.84-18.25
	c-21.49-24.17-41.65-49.63-58.96-76.99c-9.95-15.96-18.25-33.15-22.43-51.57c-2.4-9.84-3.47-19.94-4.93-29.94
	c-0.05-7.75-2.09-15.3-2.04-23.04c-0.11-6.72-1.28-13.36-1.42-20.07c-0.22-6.29-0.06-12.61-0.64-18.88
	c-1.95-13.63-0.18-27.54-2.72-41.1c-0.4-7.55-0.22-15.15-1.58-22.63c3.27-2.17,4.54-6.04,5.62-9.61c1.41,0.47,3.11,0.56,4.17,1.75
	c3.55,3.94,6.53,8.46,8.42,13.44c3.95,10.2,6.03,21.01,7.3,31.84c1.59,10.31,0.71,20.8,1.87,31.15c0.9,6.73-0.22,13.51,0.45,20.25
	c0.34,4.25-0.06,8.54,0.46,12.79c0.11,2.28,2.41,3.38,3.81,4.88c1.37-12.89,2.56-25.86,2.18-38.84c-0.37-6.44,2.13-12.56,2.25-18.97
	c1.45-7.48,2.19-15.19,4.85-22.36c4.16,5.49,6.53,12.07,8.7,18.55c3.39,11.05,6.17,22.3101,7.89,33.7401
	c3.03,23.89,3.28,48.22,9.64,71.59c3.4,13.31,8.64,26.79,18.47,36.71c6.41,5.87,14.01,10.24,21.53,14.5
	c7.03,3.61,14.77,5.5,22.36,7.53c3.69,0.73,7.57,2.38,11.31,0.98c-13.38-21.72-29.67-41.54-42.74-63.47
	c-2.24-3.58-3.55-7.7-3.27-11.95c2.75-0.28,5.64-0.28,8.13,1.1c13.2,6.39,24.88,15.51,35.85,25.14c6.17,5.21,10.52,12.14,16.5,17.53
	c14.11,12.87,28.45,25.49,42.56,38.36c13.7,12.8,29.02,23.68,43.41,35.67c10.53,9.85,21.45,19.29,33.01,27.92
	c7.3,6.21,15.5,11.22,23.34,16.7c12.82,8.4,23.09,20.54,29.71,34.32c4.48,9.92,7.14,20.52,9.88,31.02
	c3.68,12.38,3.84,25.44,4.21,38.26c0.52,21.88,0.07,43.79-1.25,65.64c-0.6,7.91,0.02,15.87-0.65,23.79
	c-0.42,8.25-1.61,16.46-1.72,24.7401c-0.06,5.72-1.77,11.26-1.95,16.97c-0.22,4.67-0.82,9.3199-1.17,13.99
	c-3.27,16.46-3.55,33.34-5.61,49.98c-0.03,9.23-2.14,18.26-2.61,27.47c-0.66,10.2101-2.63,20.3-2.75,30.55
	c-0.7,5.33-1.9,10.61-1.95,16.02c-2.83,24.64-4.98,49.34-7.81,73.97c-2.24,25.84-5.66,51.58-7.42,77.47
	c-1.51,11.14-2.19,22.37-3.08,33.5701c0.11,7.0399-1.84,13.9199-1.59,20.96c0.2,6.3-0.98,12.51-1.45,18.77
	c-0.45,5.0699-0.02,10.16-0.26,15.25c-1.53,17.85-1.98,36.05,1.83,53.6799c0.61,3.54,3.49,5.9301,6.04,8.2001
	c1.98,1.63,4.16,3.39,6.88,3.36c3.11,0.09,6.03,1.13,9.01,1.87c3.21,0.78,6.26-0.72,9.3-1.49c4.02-0.5601,8.23,0.4301,12.15-1.02
	c4.41-1.6,9.29-1.2999,13.56-3.39c8.43-3.85,17.18-7.09,25.06-12.0499c7.89-3.7101,14.58-9.38,21.79-14.1901
	c9.4-6.0499,17.32-14.03,25.3-21.79c14.57-14.22,26.17-31.12,36.32-48.7c9.98-17.11,18.73-34.89,27.19-52.79
	c8.32-18.21,16.74-36.3999,23.91-55.1c7.55-17.89,14.81-35.89,22.1-53.89c4.4-10.39,7.74-21.2,12.5099-31.4399
	c3.28-6.87,5.35-14.66,10.7-20.28c5.63-4.25,11.41-8.33,17.29-12.23c-1.12-5.86-4.22-11.01-6.5-16.4401
	c-5.67-14.34-10.68-28.9199-15.38-43.6c-7.85-28.11-13.67-56.7999-17.15-85.78c-0.24-6.37-2.19-12.55-2.19-18.93
	c0.04-7.4-2.16-14.6-1.98-21.99c0.21-5.37-1.02-10.64-1.02-15.99c0.05-6.36-1.22-12.66-0.99-19.03c0.28-6.37-1.26-12.64-1.03-19
	c-0.14-7.75,0.59-15.56-0.65-23.24c-0.74-5.92-0.06-11.9-0.37-17.83c-1.9-15.19-0.44-30.54-1.04-45.79
	c-0.09-1.98-2.35-2.75-3.97-3.1c-11.48-2.36-22.86-5.19-34.33-7.58c-23.87-4.97-47.63-10.56-71.74-14.22
	c-8.11-0.21-16.15-1.45-24.25-1.81c-10.88,0-21.74-0.73-32.61-0.4c-9.15,0.46-18.32-1.59-26.62-5.35
	c-11.96-5.38-20.9-16.81-23.41-29.66c-0.99-4.96-2.17-9.94-2.06-15.02c-0.08-5.09,1.75-9.93,2.22-14.95
	c2.22-14.62,10.38-27.27,14.79-41.19c1.62-5.3,1.91-12.24-2.71-16.13c-8.13-6.06-19-5.47-27.73-10.17
	c-4.98-2.86-4.44-9.85-2.26-14.33c4.29-7.66,12.27-12.18,19.67-16.36c4.19-2.55,8.94-4.38,12.43-7.91c0.13-2.1-2.13-2.15-3.57-2.72
	c-4.83-1.5-9.84-2.96-13.88-6.12c-5.05-4.02-9.17-9.16-12.13-14.88c-1.34-2.47-1.13-5.72,0.57-7.97c3.13-4.82,8.03-8.01,12.6-11.31
	c7.52-5.4,15.78-10.1,21.76-17.3c2.25-2.55,3.41-6.66,1.16-9.56c-3.32-4.27-8.42-6.5-13.2-8.71c-12.07-5.38-23.04-13.47-31.31-23.81
	c-3.49-4.52-4.6-12.94,1.08-16.18c4.68-2.51,9.68-4.37,14.58-6.39c16.63-6.47,32.47-14.86,47.51-24.45
	c16.1-10.48,30.91-23.09,43.12-37.96c2.02-2.83,4.84-5.64,4.75-9.36c0.13-6.53-2.38-12.68-2.74-19.15
	c-2.11-11.28-2.37-22.8-4.5-34.07c-0.08-8.66-0.39-17.32-1.58-25.9c-1.37-12.15-0.28-24.4,1.07-36.49
	c0.59-5.02-0.02-10.13,1.05-15.09c0.71-3.43,1.14-6.9,1.53-10.38c5.63-37.39,20.76-73.24,43.43-103.49
	c9.02-12.78,20.15-23.85,30.55-35.47c7.51-10.04,16.18-19.12,24.81-28.18c6.17-5.52,11.84-11.59,18.55-16.49
	c12.78-11.26,27.13-20.49,41.61-29.38c20.63-12.55,42.72-22.62,65.56-30.43c17.82-5.74,35.97-10.42,54.19-14.74
	C789.94,32.09,808.17,28.65,826.63,27.6 M532.31,205.35c-4.64,6.25-7.92,13.35-11.92,20.01c-9.73,18.33-16.1,38.27-20.5,58.5
	c-1.05,3.65-0.7,7.54-1.97,11.14c-1.35,3.95-0.63,8.22-1.7,12.23c-2.07,8.43-0.49,17.19-2.07,25.69
	c-0.14,10.65-0.68,21.38,0.69,31.98c0.53,6.96-0.54,14.08,1.35,20.91c1.13,3.66,0.72,7.5,0.84,11.27c0.03,3.73,2.06,7.12,1.94,10.88
	c0.05,4.77,0.93,9.57,2.88,13.94c1.45-3.5,2.87-7.08,3.21-10.88c1.01-6.68,2.63-13.28,2.97-20.05c0.1-4.71,2.02-9.19,1.96-13.92
	c0.01-4.05-0.18-8.14,0.83-12.1c2.07-9.54,0.29-19.39,1.95-28.97c0.91-7.96,0.96-15.99,2.11-23.92c-0.21-7.75,2.29-15.19,2.42-22.91
	c1.98-7.13,1.93-14.63,3.89-21.76c4.94-25.79,13.42-50.89,24.51-74.69c1.47-2.81,2.82-5.72,3.45-8.85
	C542.47,190.07,537.38,197.8,532.31,205.35 M668.06,846.83c0.32,8.46-1.33,16.78-1.21,25.23c-1.03,6.27-0.93,12.62-0.81,18.95
	c0.22,4.04-1.24,7.92-1.05,11.97c0.11,3.73-0.08,7.48-0.76,11.16c-0.66,7.29,0.13,14.62-0.36,21.91
	c-1.64,10.57-0.57,21.3-0.87,31.95c0.27,9-0.73,18.1,0.87,27.03c0,8.35,0.88,16.67,2.03,24.95c-0.15,6.1,1.84,11.9501,2.25,18.01
	c2.43,15.3201,5.37,30.5701,9.34,45.5701c4.65,21.25,12.02,41.7699,18.94,62.35c2.67,0.33,5.06-1.02,7.44-2.02
	c4.08-1.8201,8.16-3.67,11.94-6.0701c2.13-1.5,5.17-0.0599,7.17-1.8099c3.22-2.66,6.83-4.75,10.17-7.24
	c-4.9-16.4301-10.84-32.59-14.37-49.41c-6.97-27.95-10.05-56.65-12.66-85.29c0.26-6.08-1.47-12.01-1.14-18.08
	c0.11-4.65-0.01-9.31-0.62-13.92c-0.83-6.57,0.05-13.21-0.6-19.79c-1.37-9.3701-0.54-18.86-0.76-28.28
	c-0.16-16.22,0.31-32.47-0.22-48.66c-2.89-3.6201-7.03-5.9-10.9301-8.22c-5.47-3.14-11.99-4.07-17.06-7.93
	C672.85,847.67,670.49,846.92,668.06,846.83 M720.04,892.85c0.81,5.34,1.15,10.73,1.89,16.09c-0.09,12.43,2.62,24.66,3.24,37.05
	c3.37,24.79,6.86,49.61,12.74,73.97c1.06,8.06,4.11,15.66,5.57,23.64c3.01,12.63,7.05,24.98,10.33,37.54
	c2.61,8.11,5.17,16.26,8.67,24.04c2.25-0.78,3.67-2.8,5.29-4.42c5.77-6.28,10.97-13.5,13.2-21.8101
	c0.11-7.6499,0.54-15.4299-1.14-22.95c-0.89-4.86-1.15-9.8101-2.15-14.65c-7.94-41.92-20.85-83.03-39.75-121.33
	c-3.22-4.4-4.72-9.71-7.73-14.22c-2.35-3.66-4.5-7.45-7-11C722.53,893.61,721.32,893.01,720.04,892.85 M709.99,969
	c-0.37,4.36,0.71,8.61,0.98,12.94c-0.22,9.03,2.13,17.85,2.34,26.86c1.73,7.13,1.45,14.5,3.18,21.6201
	c1.16,9.4199,2.74,18.7899,4.06,28.2c2.43,10.04,3.68,20.33,6.49,30.29c3.22,11.7999,6.55,23.61,11.12,34.98
	c0.32-0.05,0.97-0.15,1.29-0.1901c1.65-4.1599,4.93-7.26,7.82-10.5399c1.56-1.4401,0.25-3.5801-0.15-5.2101
	c-18.03-52.9399-30.76-107.77-36.37-163.41C707.07,952.28,710.5,960.87,709.99,969z"/>
</svg>
